<svg id="Grupo_2" data-name="Grupo 2" xmlns="http://www.w3.org/2000/svg" xmlns:xlink="http://www.w3.org/1999/xlink" width="51.734" height="38.844" viewBox="0 0 51.734 38.844">
  <defs>
    <clipPath id="clip-path">
      <rect id="Rectángulo_8" data-name="Rectángulo 8" width="51.733" height="38.844"/>
    </clipPath>
  </defs>
  <g id="Grupo_1" data-name="Grupo 1" clip-path="url(#clip-path)">
    <path id="Trazado_1" data-name="Trazado 1" d="M4.553,76.412c3.11,0,4.553,1.966,4.553,3.865v4.179H7.143V80.277c0-1.19-.69-3.111-2.59-3.111s-2.59,1.921-2.59,3.111v4.179H0V80.277c0-1.9,1.443-3.865,4.553-3.865" transform="translate(0 -46.929)"/>
    <path id="Trazado_2" data-name="Trazado 2" d="M74.661,84.791c-3.111,0-4.554-1.967-4.554-3.866V76.747h1.964v4.178c0,1.191.689,3.111,2.591,3.111s2.589-1.92,2.589-3.111V76.747h1.963v4.178c0,1.9-1.443,3.866-4.552,3.866" transform="translate(-43.056 -47.134)"/>
    <path id="Trazado_3" data-name="Trazado 3" d="M33.887,84.047a3.37,3.37,0,0,1-1.6.68,4.184,4.184,0,0,1-4.861-3.885c-.1-2.956,2.807-4.206,4.71-4.157a4.129,4.129,0,0,1,4.344,3.887v4.052H34.512V80.591c0-.877-.408-3.132-2.434-3.185-1.985-.053-2.628,1.8-2.632,3.164,0,.873.188,3.04,2.478,3.172a3.714,3.714,0,0,0,1.964-.392Z" transform="translate(-16.845 -47.095)"/>
    <path id="Trazado_4" data-name="Trazado 4" d="M60.182,80.272a3.241,3.241,0,0,1-1.807.046c-.923-.24-2.455-.657-2.455-3.833,0-1.06,0-8.782,0-8.782h1.993v3.49H59.74v1.23H57.915s.044,2.469,0,4.47c-.04,1.78.5,2.387.892,2.585a2.167,2.167,0,0,0,1.374.089Z" transform="translate(-34.343 -41.58)"/>
    <path id="Trazado_5" data-name="Trazado 5" d="M98.523,80.113c0-1.953,1.009-3.331,2.789-3.511a3.378,3.378,0,0,1,1.7.109v.794a2.712,2.712,0,0,0-1.381.035c-.81.247-1.128,1.472-1.128,1.883v5.168H98.523Z" transform="translate(-60.508 -47.023)"/>
    <path id="Trazado_6" data-name="Trazado 6" d="M117.061,84.047a3.367,3.367,0,0,1-1.595.68,4.184,4.184,0,0,1-4.861-3.885c-.1-2.956,2.808-4.206,4.71-4.157a4.13,4.13,0,0,1,4.345,3.887v4.052h-1.975V80.591c0-.877-.407-3.132-2.434-3.185-1.984-.053-2.627,1.8-2.631,3.164,0,.873.189,3.04,2.478,3.172a3.7,3.7,0,0,0,1.963-.392Z" transform="translate(-67.927 -47.095)"/>
    <path id="Trazado_7" data-name="Trazado 7" d="M38.85,3.372a33.354,33.354,0,0,0-1.632,4.578s-.08.233-.24-.037c-.106-.176-1.361-1.886-1.993-2.653-.724-.884-3.945-4.281-7.642-2.355-3.331,1.747-2.055,5.991-1.033,7.588.621.968,1.821,2.483,2.16,2.907.058.073.046.1-.049.077-.286-.076-1.031-.272-2.391-.623-1.223-.314-2.4-.264-2.756.263a1.694,1.694,0,0,0,.091,1.874,12.238,12.238,0,0,0,8.1,5.484c.087.017.079.087.015.219a1,1,0,0,0,.067,1.14c.659.789,1.388,1.082,4.327,1.587,4.081.7,5.518-.678,5.688-.86a.046.046,0,0,1,.049-.012,10.018,10.018,0,0,0,6.318-.579c2.841-1.205,3.927-2.3,3.946-2.977.015-.617-1.468-.536-1.907-.65-.136-.038-.1-.1-.02-.147.2-.127.7-.335,1.1-.542s4.563-2.305,5.386-5.843-2.379-3.558-4.106-2.831S48.98,10.527,48.617,10.7c-.059.027-.077.008-.05-.055A22.929,22.929,0,0,0,49.674,7.21c.363-1.678.194-6.275-4.347-7.119a5.488,5.488,0,0,0-1-.091A6.254,6.254,0,0,0,38.85,3.372m.179,7.218c.354-1.013.479-1.531,1.075-3.483.737-2.427,2.337-4.33,4.919-3.545,3.021.922,2.317,3.98,1.829,5.221-.393,1-.7,2.02-1.35,3.677-.517,1.342.593,1.384,1.185,1.252a37.011,37.011,0,0,0,3.876-1.744c.915-.419,2.608-1.441,3.557-.452.97,1-.12,2.713-1.271,3.743a22.856,22.856,0,0,1-5.163,2.691c-.95.379-1.3.914-.835,1.21a7.767,7.767,0,0,0,2.221.578c.335.04.664.128.664.361,0,.294-.773.894-2.658,1.524a9.66,9.66,0,0,1-3.877.385c-1.625-.3-1.884-.559-2.64-.27-.565.222-.611.676-1.43,1a5.99,5.99,0,0,1-2.959.1c-.953-.162-2.545-.31-2.709-1.052-.069-.3.251-.48.521-.776s.5-.869-.665-1.117a23.223,23.223,0,0,1-5.543-1.607c-2.018-1.044-2.789-2.609-2.582-3.159.172-.456.628-.5,1.245-.382a46.8,46.8,0,0,0,4.742.988c.385,0,.685-.073.82-.312.366-.643-.761-1.417-1.691-2.543-1.34-1.593-3.887-4.253-1.968-6.628,1.273-1.57,3.778-.549,4.822.661.8.93,2.19,2.825,3.259,4.11a1.789,1.789,0,0,0,1.31.745c.536,0,1.021-.386,1.3-1.175" transform="translate(-14.15)"/>
  </g>
</svg>
